<?xml version="1.0"?>
<svg width="411" height="135" xmlns="http://www.w3.org/2000/svg" xmlns:svg="http://www.w3.org/2000/svg">
 <title>アートボード 1</title>
 <g class="layer">
  <title>Layer 1</title>
  <g id="svg_10">
   <path d="m27.238499,40.196399c-1.4932,0.41603 -12.40678,3.65721 -16.60903,14.27086c-0.69338,1.75443 -4.49895,11.36509 1.2094,18.86657c3.76041,4.94401 9.45263,6.08568 11.20706,6.36948c-3.15733,1.59318 -12.80991,6.97901 -16.85091,18.22156c-1.41903,3.95392 -4.09259,11.39411 -0.08062,18.38281c4.26352,7.41762 12.90022,8.8302 14.27086,9.03015a17.54429,17.54429 0 0 0 6.45011,6.77261c0.04515,0.0258 0.50634,0.29671 1.04814,0.56439c5.37294,2.65745 12.46806,2.05758 12.90022,2.01566c8.8818,-0.83207 15.41576,-6.45011 17.09278,-7.98201c1.5448,4.3893 5.80509,7.06932 9.99767,6.53074c5.08591,-0.64501 8.88825,-5.90185 7.82075,-10.64268a8.58832,8.58832 0 0 0 -7.25637,-6.45011a21.89167,21.89167 0 0 0 -4.67633,0c0.91269,-1.88021 2.25754,-7.74013 2.41879,-13.00664c0.10643,-3.38631 -0.91269,-8.27872 -4.19257,-13.27755c-6.0373,-9.19141 -17.65717,-10.80393 -21.36276,-10.56205c3.14442,-2.37686 9.87834,-8.22389 11.36831,-16.04464c1.56737,-8.21421 -4.15064,-14.25474 -5.32134,-15.64151c7.70788,-7.97556 12.11008,-13.46783 15.27708,-19.09555c2.50909,-4.46025 5.42777,-8.92372 6.33078,-15.25128c0.64501,-4.51508 0.85142,-7.71433 -1.69315,-9.27203c-3.58626,-2.19626 -11.41346,4.05067 -12.49708,4.91821a29.16093,29.16093 0 0 0 -2.74129,2.49941c0.1677,-1.14812 1.03202,-7.57888 -2.33816,-10.4008a4.12807,4.12807 0 0 0 -1.37065,-0.80626c-3.04767,-1.03524 -6.56944,2.11241 -7.90138,3.30568c-1.69315,1.50287 -7.2725,7.03384 -11.21029,28.4611c-0.64179,3.48306 -1.04814,6.35658 -1.29002,8.22389l0.00001,-0.00001l-0.00001,0z" fill="#fff" id="svg_11" stroke="#777" stroke-miterlimit="10" stroke-width="3.50394px"/>
   <path d="m60.737129,74.623849a11.23609,11.23609 0 0 0 -2.53812,3.0251a10.50077,10.50077 0 0 0 -1.45127,6.00827a8.51414,8.51414 0 0 0 1.25132,3.67011c0.46118,0.66759 -0.30638,-0.13223 0.64501,1.12877c-0.24188,-0.96752 -1.54802,-2.25754 -3.14442,-3.50563c-1.06749,-0.83207 -3.20248,-2.44459 -6.32756,-2.61875a10.37822,10.37822 0 0 0 -5.07946,1.04814l0.96752,1.5319l-1.45127,0.28381a9.24946,9.24946 0 0 0 1.65445,4.11194a9.40426,9.40426 0 0 0 3.66366,2.9735a11.05871,11.05871 0 0 0 4.31512,1.04814a12.15845,12.15845 0 0 0 1.37065,0a10.32017,10.32017 0 0 0 -2.94125,1.45127a10.68138,10.68138 0 0 0 -3.34438,3.99262c-0.58696,1.13522 -1.2094,2.38009 -1.08684,4.03132a5.9212,5.9212 0 0 0 0.32251,1.5319l1.85441,0l0.48376,1.97696a10.92971,10.92971 0 0 0 4.26997,-1.05137a11.31994,11.31994 0 0 0 4.557,-4.07002c1.06749,-1.66735 1.68025,-4.36995 1.85441,-5.44066c-0.09997,0.93849 -0.14513,4.25385 1.2094,6.77261c0.56116,1.04169 1.69315,3.38631 4.39575,4.51508a8.91727,8.91727 0 0 0 2.21884,0.60631l0.68694,-1.85441l2.46071,-0.08062c0.64501,-2.70259 0.1419,-4.55055 -0.28058,-5.40196c-0.76434,-1.5319 -1.85441,-2.69937 -2.82192,-3.74751c-1.10619,-1.19972 -2.25754,-2.11886 -2.94125,-2.77999c1.68993,0.40635 4.428,0.49988 7.2983,-0.16125c1.58672,-0.36443 3.54756,-0.84496 4.96013,-2.58004a6.3727,6.3727 0 0 0 0.96752,-1.65123l-1.40935,-0.88689l1.00944,-1.00622c-1.14489,-0.87399 -3.53144,-2.39621 -6.48881,-2.21561c-1.74476,0.1032 -3.32181,0.77724 -4.43445,1.25132a18.88592,18.88592 0 0 0 -3.0638,1.65445a12.55514,12.55514 0 0 0 -0.88689,-13.70648c-0.32251,0.55148 -0.87399,1.14167 -1.2094,1.69315c-0.58696,-0.51278 -0.95139,-1.05137 -1.51578,-1.54802l-0.00001,0l-0.00001,-0.00001z" fill="#f99" id="svg_12" stroke="#f99" stroke-miterlimit="10" stroke-width="0.99213px"/>
   <g id="svg_13">
    <line fill="none" id="svg_14" stroke="#fff" stroke-miterlimit="10" stroke-width="4.25197px" x1="60.979009" x2="61.301509" y1="90.829749" y2="83.331489"/>
    <line fill="none" id="svg_15" stroke="#fff" stroke-miterlimit="10" stroke-width="4.25197px" x1="53.964519" x2="60.979009" y1="88.936639" y2="90.749119"/>
    <line fill="none" id="svg_16" stroke="#fff" stroke-miterlimit="10" stroke-width="4.25197px" x1="55.538339" x2="61.140259" y1="96.918639" y2="90.549159"/>
    <line fill="none" id="svg_17" stroke="#fff" stroke-miterlimit="10" stroke-width="4.25197px" x1="64.729749" x2="60.940309" y1="97.483029" y2="90.629789"/>
    <line fill="none" id="svg_18" stroke="#fff" stroke-miterlimit="10" stroke-width="4.25197px" x1="68.277299" x2="61.301509" y1="90.023479" y2="90.791039"/>
   </g>
  </g>
  <g id="文字">
   <g id="svg_19">
    <path d="m95.446149,79.897939q0,4.1 3.17,4.1a2.9,2.9 0 0 0 1.91,-0.68a4.23,4.23 0 0 0 1.26,-1.91a8.43,8.43 0 0 0 0.43,-2.81l0,-9.65a10,10 0 0 1 0.86,-4.28a6.46,6.46 0 0 1 2.52,-2.84a7.33,7.33 0 0 1 3.89,-1a9.6,9.6 0 0 1 6,1.69q2.16,1.69 2.16,6.23l0,18.72q0,4.39 -1.8,6t-6.28,1.67a12,12 0 0 1 -3.31,-0.4a5.18,5.18 0 0 1 -2.2,-1.19a5,5 0 0 1 -1.26,-2.09a19.67,19.67 0 0 1 -6.23,2.74a31.08,31.08 0 0 1 -7.31,0.79q-5.11,0 -7.34,-4t-2.23,-13.14q0,-4.54 0.22,-7.38a33.76,33.76 0 0 1 0.68,-4.9a6.39,6.39 0 0 1 1.44,-3.06a5.52,5.52 0 0 1 2.3,-1.44a11.6,11.6 0 0 1 3.49,-0.43q4,0 5.8,1.51a5.65,5.65 0 0 1 1.76,4.54l0.07,13.21z" fill="#777" id="svg_20" stroke="#fff" stroke-miterlimit="10" stroke-width="2.83465px"/>
    <path d="m141.566149,60.247939a21,21 0 0 1 11.16,2.74q4.46,2.74 4.46,6a2.41,2.41 0 0 1 -0.79,1.73a2.73,2.73 0 0 1 -2,0.79a4.79,4.79 0 0 1 -2.38,-0.76a25.3,25.3 0 0 1 -2.45,-1.61a12.61,12.61 0 0 0 -3,-1.58a11,11 0 0 0 -4,-0.72q-2.81,0 -2.81,1.73a2.17,2.17 0 0 0 1.44,1.94a25.59,25.59 0 0 0 4.21,1.51a25.93,25.93 0 0 1 4.21,1.51q5.4,2.09 7.42,4.5a9.62,9.62 0 0 1 2,6.37a7.75,7.75 0 0 1 -1.08,3.85a12.44,12.44 0 0 1 -3.24,3.6a16.89,16.89 0 0 1 -5.87,2.74a31.3,31.3 0 0 1 -8.46,1q-9.29,0 -13.9,-4.25a6,6 0 0 1 -2.23,-4.32a2.73,2.73 0 0 1 0.9,-2.16a3.74,3.74 0 0 1 2.56,-0.79a13.42,13.42 0 0 1 5,1.62a14.62,14.62 0 0 0 6.26,1.62q4,0 4,-1.94q0,-1 -2.09,-1.62t-5.47,-1.48a18.53,18.53 0 0 1 -5.4,-2.16a8.22,8.22 0 0 1 -5.69,-8.42q0,-5 4.79,-8.24t12.45,-3.2z" fill="#777" id="svg_21" stroke="#fff" stroke-miterlimit="10" stroke-width="2.83465px"/>
    <path d="m178.106149,95.527939a11.62,11.62 0 0 1 -9.43,-4.64q-3.74,-4.64 -3.74,-12.71t3.7,-13.04a11.42,11.42 0 0 1 9.47,-4.86a16.61,16.61 0 0 1 10.8,4.1a6.6,6.6 0 0 1 6.26,-3.6a9.6,9.6 0 0 1 6,1.69q2.16,1.69 2.16,6.23l0,18.72q0,4.32 -1.8,6t-6.29,1.72q-4.75,0 -6.26,-2.66a19,19 0 0 1 -10.87,3.05zm9.79,-24.26a3.62,3.62 0 0 0 -3.17,-2.09q-1.87,0 -3,2.74a16,16 0 0 0 -1.16,6.22a15.23,15.23 0 0 0 1.08,5.9q1.08,2.59 3,2.59a3.7,3.7 0 0 0 3.24,-1.94l0.01,-13.42z" fill="#777" id="svg_22" stroke="#fff" stroke-miterlimit="10" stroke-width="2.83465px"/>
    <path d="m231.386149,68.137939q0,-1.66 -1.87,-1.66a3,3 0 0 0 -2.45,1.51a11.18,11.18 0 0 0 -1.66,3.78a19.05,19.05 0 0 0 -0.58,4.72a7.62,7.62 0 0 0 8.14,8.06a20.63,20.63 0 0 0 6.34,-0.86a13.84,13.84 0 0 0 2.63,-1.08a5.91,5.91 0 0 1 2.2,-0.79a3.38,3.38 0 0 1 1.66,0.36a2.11,2.11 0 0 1 0.9,0.86a2.4,2.4 0 0 1 0.25,1.08a6,6 0 0 1 -0.68,2.45a12.73,12.73 0 0 1 -2.12,3a19.92,19.92 0 0 1 -3.35,2.92a16.83,16.83 0 0 1 -4.72,2.2a20,20 0 0 1 -5.9,0.86q-8.93,0 -14.69,-4.79t-5.76,-13.14a16.18,16.18 0 0 1 9.84,-15.32a25.77,25.77 0 0 1 10.58,-2.05a28.17,28.17 0 0 1 9.4,1.33a10.69,10.69 0 0 1 5.29,3.56a9,9 0 0 1 1.58,5.33a8,8 0 0 1 -0.54,2.81a11.09,11.09 0 0 1 -1.66,2.88a7.84,7.84 0 0 1 -3.28,2.34a13,13 0 0 1 -5,0.9a12.73,12.73 0 0 1 -2.12,-0.14a6,6 0 0 1 -1.73,-0.61a2.85,2.85 0 0 1 -1.33,-1.55a7.44,7.44 0 0 1 -0.43,-2.74a14.09,14.09 0 0 1 0.54,-3.49a13.88,13.88 0 0 0 0.52,-2.73z" fill="#777" id="svg_23" stroke="#fff" stroke-miterlimit="10" stroke-width="2.83465px"/>
    <path d="m269.036149,84.217939q0,5.83 -1.94,8.35t-6,2.52q-4,0 -5.9,-2.27t-1.87,-8l-0.14,-30.38a12.51,12.51 0 0 1 0.38,-3.3a8.2,8.2 0 0 1 1.08,-2.45a5.85,5.85 0 0 1 1.69,-1.66a7.14,7.14 0 0 1 2.2,-0.94a10.86,10.86 0 0 1 2.56,-0.29q4,0 5.94,1.58t2,6.41l0,30.43z" fill="#777" id="svg_24" stroke="#fff" stroke-miterlimit="10" stroke-width="2.83465px"/>
    <path d="m295.246149,95.597939a24.48,24.48 0 0 1 -10.12,-2a16.43,16.43 0 0 1 -9.9,-15.48q0,-8.21 5.62,-13t14.4,-4.82q8.78,0 14.33,4.82t5.54,13q0,8.14 -5.65,12.82t-14.22,4.66zm3.74,-17.57a21.12,21.12 0 0 0 -0.94,-6.59q-0.94,-2.84 -2.74,-2.84a2.62,2.62 0 0 0 -2.16,1.44a10.2,10.2 0 0 0 -1.37,3.53a22,22 0 0 0 -0.43,4.46a18.8,18.8 0 0 0 1,6.44q1,2.77 2.88,2.77t2.81,-2.74a20.09,20.09 0 0 0 0.95,-6.47z" fill="#777" id="svg_25" stroke="#fff" stroke-miterlimit="10" stroke-width="2.83465px"/>
    <path d="m336.856149,79.897939q0,4.1 3.17,4.1a2.9,2.9 0 0 0 1.91,-0.68a4.23,4.23 0 0 0 1.26,-1.91a8.42,8.42 0 0 0 0.43,-2.81l0,-9.65a10,10 0 0 1 0.86,-4.28a6.47,6.47 0 0 1 2.52,-2.84a7.33,7.33 0 0 1 3.89,-1a9.6,9.6 0 0 1 6,1.69q2.16,1.69 2.16,6.23l0,18.72q0,4.39 -1.8,6t-6.28,1.67a12,12 0 0 1 -3.31,-0.4a5.18,5.18 0 0 1 -2.2,-1.19a5,5 0 0 1 -1.26,-2.09a19.66,19.66 0 0 1 -6.23,2.74a31.08,31.08 0 0 1 -7.31,0.79q-5.11,0 -7.34,-4t-2.23,-13.14q0,-4.54 0.22,-7.38a33.77,33.77 0 0 1 0.68,-4.9a6.39,6.39 0 0 1 1.44,-3.06a5.51,5.51 0 0 1 2.3,-1.44a11.6,11.6 0 0 1 3.49,-0.43q4,0 5.8,1.51a5.65,5.65 0 0 1 1.76,4.54l0.07,13.21z" fill="#777" id="svg_26" stroke="#fff" stroke-miterlimit="10" stroke-width="2.83465px"/>
    <path d="m404.466149,84.297939q0,5.83 -1.94,8.32t-5.96,2.52q-4.61,0 -6.34,-2.88a18.77,18.77 0 0 1 -11.3,3.38a11.55,11.55 0 0 1 -9.36,-4.64q-3.75,-4.65 -3.74,-12.71t3.65,-13.15a11.32,11.32 0 0 1 9.43,-4.86a16.19,16.19 0 0 1 9.72,3.31l0,-9.22q0,-4.39 2.16,-6.52a7.86,7.86 0 0 1 5.76,-2.12q4,0 5.94,1.58t2,6.41l-0.02,30.58zm-15.7,0.43l-0.07,-13.46a3.63,3.63 0 0 0 -3.17,-2a2.72,2.72 0 0 0 -2.2,1.37a10,10 0 0 0 -1.48,3.38a17.46,17.46 0 0 0 -0.5,4.25a15.23,15.23 0 0 0 1.08,5.9q1.08,2.59 3,2.59a3.69,3.69 0 0 0 0.72,-0.07a4.28,4.28 0 0 0 0.65,-0.18a3.27,3.27 0 0 0 0.58,-0.29a2.82,2.82 0 0 0 0.5,-0.4a4.62,4.62 0 0 0 0.43,-0.5l0.46,-0.59z" fill="#777" id="svg_27" stroke="#fff" stroke-miterlimit="10" stroke-width="2.83465px"/>
   </g>
  </g>
 </g>
</svg>